<svg width="34" height="39" viewBox="0 0 34 39" fill="none" xmlns="http://www.w3.org/2000/svg">
<path d="M19.4069 19.5L34 32.335C32.1806 34.417 30.0074 36.0483 27.4805 37.229C24.9535 38.4097 22.2624 39 19.4069 39C16.7789 39 14.2646 38.4858 11.864 37.4575C9.4634 36.4292 7.39762 35.0454 5.66667 33.3062C3.93571 31.5669 2.55853 29.4912 1.53512 27.0791C0.511706 24.667 0 22.1406 0 19.5C0 16.8594 0.511706 14.333 1.53512 11.9209C2.55853 9.50879 3.93571 7.43311 5.66667 5.69385C7.39762 3.95459 9.4634 2.5708 11.864 1.54248C14.2646 0.51416 16.7789 0 19.4069 0C22.2624 0 24.9535 0.590332 27.4805 1.771C30.0074 2.95166 32.1806 4.58301 34 6.66504L19.4069 19.5Z" fill="#F1AEB5"/>
</svg>
